<svg width="52" height="52" viewBox="0 0 52 52" fill="none" xmlns="http://www.w3.org/2000/svg">
<path d="M36.9124 18.7244H30.8497V16.6995C30.8212 15.9232 30.4862 15.1899 29.9179 14.6603C29.3497 14.1307 28.5946 13.848 27.8183 13.8742H24.1807C23.4043 13.848 22.6493 14.1307 22.0811 14.6603C21.5128 15.1899 21.1778 15.9232 21.1493 16.6995V18.7244H15.0866C14.765 18.7244 14.4566 18.8522 14.2292 19.0796C14.0018 19.307 13.874 19.6154 13.874 19.937C13.874 20.2586 14.0018 20.567 14.2292 20.7944C14.4566 21.0218 14.765 21.1495 15.0866 21.1495H16.2991V34.4875C16.2991 35.4523 16.6824 36.3775 17.3646 37.0597C18.0467 37.7419 18.972 38.1252 19.9368 38.1252H32.0622C33.027 38.1252 33.9522 37.7419 34.6344 37.0597C35.3166 36.3775 35.6999 35.4523 35.6999 34.4875V21.1495H36.9124C37.234 21.1495 37.5424 21.0218 37.7698 20.7944C37.9972 20.567 38.125 20.2586 38.125 19.937C38.125 19.6154 37.9972 19.307 37.7698 19.0796C37.5424 18.8522 37.234 18.7244 36.9124 18.7244ZM23.5744 16.6995C23.5744 16.5055 23.829 16.2993 24.1807 16.2993H27.8183C28.17 16.2993 28.4246 16.5055 28.4246 16.6995V18.7244H23.5744V16.6995ZM33.2748 34.4875C33.2748 34.8091 33.147 35.1175 32.9196 35.3449C32.6922 35.5723 32.3838 35.7001 32.0622 35.7001H19.9368C19.6152 35.7001 19.3068 35.5723 19.0794 35.3449C18.852 35.1175 18.7242 34.8091 18.7242 34.4875V21.1495H33.2748V34.4875Z" fill="#637381"/>
<path d="M22.3619 32.0624C22.6834 32.0624 22.9919 31.9347 23.2193 31.7073C23.4466 31.4799 23.5744 31.1715 23.5744 30.8499V25.9997C23.5744 25.6781 23.4466 25.3697 23.2193 25.1423C22.9919 24.9149 22.6834 24.7872 22.3619 24.7872C22.0403 24.7872 21.7318 24.9149 21.5045 25.1423C21.2771 25.3697 21.1493 25.6781 21.1493 25.9997V30.8499C21.1493 31.1715 21.2771 31.4799 21.5045 31.7073C21.7318 31.9347 22.0403 32.0624 22.3619 32.0624Z" fill="#637381"/>
<path d="M29.6371 32.0624C29.9587 32.0624 30.2671 31.9347 30.4945 31.7073C30.7219 31.4799 30.8497 31.1715 30.8497 30.8499V25.9997C30.8497 25.6781 30.7219 25.3697 30.4945 25.1423C30.2671 24.9149 29.9587 24.7872 29.6371 24.7872C29.3155 24.7872 29.0071 24.9149 28.7797 25.1423C28.5523 25.3697 28.4246 25.6781 28.4246 25.9997V30.8499C28.4246 31.1715 28.5523 31.4799 28.7797 31.7073C29.0071 31.9347 29.3155 32.0624 29.6371 32.0624Z" fill="#637381"/>
</svg>
