<svg width="41" height="42" viewBox="0 0 41 42" fill="none" xmlns="http://www.w3.org/2000/svg">
<path d="M28.1389 19.9086H21.5912V13.3608C21.5912 12.7581 21.1026 12.2695 20.4999 12.2695C19.8972 12.2695 19.4086 12.7581 19.4086 13.3608V19.9086H12.8608C12.2581 19.9086 11.7695 20.3972 11.7695 20.9999C11.7695 21.6026 12.2581 22.0912 12.8608 22.0912H19.4086V28.6389C19.4086 29.2416 19.8972 29.7302 20.4999 29.7302C21.1026 29.7302 21.5912 29.2416 21.5912 28.6389V22.0912H28.1389C28.7416 22.0912 29.2302 21.6026 29.2302 20.9999C29.2302 20.3972 28.7416 19.9086 28.1389 19.9086Z" fill="#637381"/>
</svg>
