<svg width="31" height="36" viewBox="0 0 31 36" fill="none" xmlns="http://www.w3.org/2000/svg">
<path d="M30.4504 30.5306C27.9558 33.0317 24.7775 34.735 21.3173 35.4251C17.8572 36.1152 14.2707 35.761 11.0113 34.4074C7.75198 33.0538 4.96615 30.7615 3.00615 27.8204C1.04615 24.8793 2.1728e-07 21.4216 0 17.8844C-2.1728e-07 14.3472 1.04615 10.8894 3.00615 7.94836C4.96615 5.00729 7.75198 2.715 11.0113 1.36138C14.2707 0.00774942 17.8572 -0.346421 21.3173 0.343651C24.7775 1.03372 27.9558 2.73704 30.4504 5.23822L26.0972 9.60293C24.4635 7.96501 22.3822 6.84958 20.1163 6.39768C17.8504 5.94578 15.5017 6.17771 13.3673 7.06414C11.2329 7.95058 9.40856 9.4517 8.12503 11.3777C6.84151 13.3037 6.15643 15.568 6.15643 17.8844C6.15643 20.2008 6.84151 22.4651 8.12503 24.3911C9.40856 26.3171 11.2329 27.8182 13.3673 28.7046C15.5017 29.5911 17.8504 29.823 20.1163 29.3711C22.3822 28.9192 24.4635 27.8038 26.0972 26.1658L30.4504 30.5306Z" fill="url(#paint0_linear_367_6371)"/>
<path d="M22.0855 17.881C22.0855 20.2333 20.1836 22.1403 17.8374 22.1403C15.4913 22.1403 13.5893 20.2333 13.5893 17.881C13.5893 15.5286 15.4913 13.6217 17.8374 13.6217C20.1836 13.6217 22.0855 15.5286 22.0855 17.881Z" fill="url(#paint1_linear_367_6371)"/>
<defs>
<linearGradient id="paint0_linear_367_6371" x1="2.81995e-07" y1="16.7462" x2="30.4504" y2="16.7462" gradientUnits="userSpaceOnUse">
<stop stop-color="#00FD92"/>
<stop offset="1" stop-color="#00A3FD"/>
</linearGradient>
<linearGradient id="paint1_linear_367_6371" x1="2.81995e-07" y1="16.7462" x2="30.4504" y2="16.7462" gradientUnits="userSpaceOnUse">
<stop stop-color="#00FD92"/>
<stop offset="1" stop-color="#00A3FD"/>
</linearGradient>
</defs>
</svg>
