<svg width="22" height="22" viewBox="0 0 22 22" fill="none" xmlns="http://www.w3.org/2000/svg">
<circle cx="3" cy="3" r="3" transform="matrix(-1 0 0 1 13.999 8)" stroke="#00FB90" stroke-width="1.5"/>
<path d="M15.4995 3.9375L15.8745 3.28798L15.8745 3.28798L15.4995 3.9375ZM15.4995 18.0621L15.1245 17.4126L15.1245 17.4126L15.4995 18.0621ZM6.49954 18.0621L6.12454 18.7117L6.12454 18.7117L6.49954 18.0621ZM6.49954 3.9375L6.87454 4.58702L6.87454 4.58702L6.49954 3.9375ZM7.92249 2.01498L7.19179 1.84594L7.92249 2.01498ZM8.53876 1.30489L8.35482 0.577798L8.53876 1.30489ZM4.31105 17.7403L4.48331 18.4702L4.31105 17.7403ZM3.40208 17.5031L3.97161 17.0151L3.40208 17.5031ZM8.53884 20.6951L8.35491 21.4222L8.53884 20.6951ZM7.92256 19.9849L7.19184 20.1539L7.92256 19.9849ZM14.0766 19.9847L14.8073 20.1538L14.0766 19.9847ZM13.4604 20.6948L13.6444 21.4219L13.4604 20.6948ZM18.5961 17.5029L18.0266 17.0149L18.5961 17.5029ZM17.6873 17.7401L17.5152 18.4701L17.6873 17.7401ZM20.4427 7.70289L19.7346 7.95009L20.4427 7.70289ZM20.0926 8.68353L19.6156 8.10469L20.0926 8.68353ZM1.9054 13.3165L2.38232 13.8953L1.9054 13.3165ZM17.6871 4.25957L17.5151 3.52957L17.6871 4.25957ZM18.5958 4.49681L19.1654 4.00882L18.5958 4.49681ZM4.31123 4.2594L4.13902 4.98937L4.31123 4.2594ZM20.0926 13.3165L20.5695 12.7376L20.0926 13.3165ZM14.0766 2.01519L14.8073 1.84609L14.0766 2.01519ZM13.4605 1.30522L13.2764 2.03229L13.2764 2.03229L13.4605 1.30522ZM13.3459 2.18429C13.5718 3.16011 14.1874 4.04594 15.1245 4.58702L15.8745 3.28798C15.3122 2.96331 14.9433 2.43384 14.8073 1.84609L13.3459 2.18429ZM15.1245 4.58702C15.9854 5.08401 16.963 5.20077 17.8592 4.98957L17.5151 3.52957C16.976 3.65662 16.3915 3.58646 15.8745 3.28798L15.1245 4.58702ZM21.1508 7.4557C20.7052 6.17942 20.0262 5.01346 19.1654 4.00882L18.0263 4.98481C18.7677 5.85011 19.3517 6.85333 19.7346 7.95009L21.1508 7.4557ZM19.749 11C19.749 10.3006 20.0672 9.67623 20.5695 9.26236L19.6156 8.10469C18.7823 8.79128 18.249 9.83367 18.249 11H19.749ZM20.5695 12.7376C20.0672 12.3238 19.749 11.6994 19.749 11H18.249C18.249 12.1663 18.7823 13.2087 19.6156 13.8953L20.5695 12.7376ZM19.1656 17.9908C20.0263 16.9863 20.7053 15.8204 21.1508 14.5443L19.7346 14.0499C19.3518 15.1465 18.7679 16.1497 18.0266 17.0149L19.1656 17.9908ZM15.8745 18.7117C16.3916 18.4132 16.9761 18.343 17.5152 18.4701L17.8594 17.0101C16.9632 16.7989 15.9854 16.9156 15.1245 17.4126L15.8745 18.7117ZM14.8073 20.1538C14.9432 19.5659 15.3121 19.0364 15.8745 18.7117L15.1245 17.4126C14.1872 17.9538 13.5716 18.8397 13.3459 19.8157L14.8073 20.1538ZM10.999 21.75C11.9109 21.75 12.7973 21.6363 13.6444 21.4219L13.2764 19.9677C12.5486 20.1519 11.7858 20.25 10.999 20.25V21.75ZM8.35491 21.4222C9.20158 21.6364 10.0875 21.75 10.999 21.75V20.25C10.2126 20.25 9.45017 20.152 8.72278 19.968L8.35491 21.4222ZM6.12454 18.7117C6.687 19.0364 7.05589 19.566 7.19184 20.1539L8.65327 19.816C8.42756 18.8399 7.81191 17.9538 6.87454 17.4126L6.12454 18.7117ZM4.48331 18.4702C5.02259 18.343 5.60734 18.4131 6.12454 18.7117L6.87454 17.4126C6.01337 16.9154 5.03526 16.7988 4.13879 17.0103L4.48331 18.4702ZM0.847181 14.5443C1.29272 15.8206 1.97175 16.9865 2.83255 17.9911L3.97161 17.0151C3.2302 16.1498 2.64624 15.1466 2.26336 14.0499L0.847181 14.5443ZM2.24898 11C2.24898 11.6994 1.93079 12.3238 1.42848 12.7376L2.38232 13.8953C3.21563 13.2087 3.74898 12.1663 3.74898 11H2.24898ZM1.42848 9.26236C1.93079 9.67623 2.24898 10.3006 2.24898 11H3.74898C3.74898 9.83367 3.21563 8.79128 2.38232 8.10469L1.42848 9.26236ZM2.83283 4.00854C1.97191 5.01324 1.29278 6.1793 0.847183 7.45569L2.26337 7.95009C2.64628 6.85323 3.23033 5.84993 3.97186 4.98457L2.83283 4.00854ZM6.12454 3.28798C5.60738 3.58656 5.02268 3.65666 4.48345 3.52944L4.13902 4.98937C5.03542 5.20085 6.01344 5.08417 6.87454 4.58702L6.12454 3.28798ZM7.19179 1.84594C7.0558 2.43375 6.68694 2.96328 6.12454 3.28798L6.87454 4.58702C7.81179 4.04589 8.42742 3.15996 8.65319 2.18403L7.19179 1.84594ZM10.999 0.25C10.0875 0.25 9.20152 0.363604 8.35482 0.577798L8.7227 2.03199C9.45012 1.84797 10.2126 1.75 10.999 1.75V0.25ZM13.6445 0.578148C12.7974 0.363727 11.9109 0.25 10.999 0.25V1.75C11.7858 1.75 12.5487 1.84807 13.2764 2.03229L13.6445 0.578148ZM8.65319 2.18403C8.6688 2.11656 8.69526 2.06896 8.71578 2.04399C8.73341 2.02255 8.73655 2.02848 8.7227 2.03199L8.35482 0.577798C7.66354 0.752676 7.3066 1.34968 7.19179 1.84594L8.65319 2.18403ZM2.38232 8.10469C2.32144 8.05453 2.28605 8.00026 2.27185 7.96396C2.25991 7.93343 2.2687 7.9348 2.26337 7.95009L0.847183 7.45569C0.581173 8.21767 0.993321 8.90381 1.42848 9.26236L2.38232 8.10469ZM4.13879 17.0103C4.07156 17.0262 4.01728 17.0236 3.98581 17.0163C3.95875 17.01 3.96247 17.0045 3.97161 17.0151L2.83255 17.9911C3.29566 18.5316 3.98771 18.5872 4.48331 18.4702L4.13879 17.0103ZM8.72278 19.968C8.73663 19.9715 8.73349 19.9775 8.71586 19.956C8.69533 19.9311 8.66888 19.8834 8.65327 19.816L7.19184 20.1539C7.30661 20.6502 7.66356 21.2473 8.35491 21.4222L8.72278 19.968ZM13.3459 19.8157C13.3303 19.8832 13.3038 19.9308 13.2833 19.9557C13.2657 19.9772 13.2625 19.9712 13.2764 19.9677L13.6444 21.4219C14.3356 21.2469 14.6925 20.65 14.8073 20.1538L13.3459 19.8157ZM18.0266 17.0149C18.0357 17.0042 18.0394 17.0097 18.0124 17.016C17.9809 17.0234 17.9266 17.026 17.8594 17.0101L17.5152 18.4701C18.0108 18.5869 18.7027 18.5312 19.1656 17.9908L18.0266 17.0149ZM19.7346 7.95009C19.7293 7.9348 19.738 7.93343 19.7261 7.96396C19.7119 8.00026 19.6765 8.05453 19.6156 8.10469L20.5695 9.26236C21.0046 8.90382 21.4168 8.21768 21.1508 7.4557L19.7346 7.95009ZM2.26336 14.0499C2.2687 14.0652 2.25991 14.0666 2.27185 14.036C2.28605 13.9997 2.32144 13.9455 2.38232 13.8953L1.42848 12.7376C0.993319 13.0962 0.581172 13.7823 0.847181 14.5443L2.26336 14.0499ZM17.8592 4.98957C17.9264 4.97373 17.9807 4.97634 18.0121 4.98367C18.0392 4.98997 18.0354 4.99547 18.0263 4.98481L19.1654 4.00882C18.7024 3.4685 18.0106 3.41279 17.5151 3.52957L17.8592 4.98957ZM3.97186 4.98457C3.96272 4.99523 3.959 4.98973 3.98606 4.98343C4.01752 4.97611 4.07179 4.9735 4.13902 4.98937L4.48345 3.52944C3.98788 3.41253 3.29592 3.46812 2.83283 4.00854L3.97186 4.98457ZM19.6156 13.8953C19.6765 13.9455 19.7119 13.9997 19.7261 14.036C19.738 14.0666 19.7293 14.0652 19.7346 14.0499L21.1508 14.5443C21.4168 13.7823 21.0046 13.0962 20.5695 12.7376L19.6156 13.8953ZM14.8073 1.84609C14.6925 1.34993 14.3356 0.75308 13.6445 0.578148L13.2764 2.03229C13.2626 2.02878 13.2657 2.02285 13.2834 2.04429C13.3039 2.06925 13.3303 2.11683 13.3459 2.18429L14.8073 1.84609Z" fill="#00FB90"/>
</svg>
