<svg width="20" height="20" viewBox="0 0 20 20" fill="none" xmlns="http://www.w3.org/2000/svg">
<path d="M11.6667 4.16663C11.8614 4.16625 12.0501 4.23406 12.2 4.3583C12.3704 4.49959 12.4776 4.70288 12.4979 4.92332C12.5183 5.14376 12.45 5.36323 12.3083 5.5333L8.575 9.99996L12.175 14.475C12.3148 14.6471 12.3802 14.8679 12.3568 15.0885C12.3333 15.309 12.2229 15.5111 12.05 15.65C11.8757 15.8033 11.6453 15.877 11.4144 15.8533C11.1834 15.8296 10.9728 15.7106 10.8333 15.525L6.80833 10.525C6.55556 10.2175 6.55556 9.77413 6.80833 9.46663L10.975 4.46663C11.1445 4.26209 11.4015 4.15066 11.6667 4.16663Z" fill="#212B36"/>
</svg>
