<svg width="18" height="18" viewBox="0 0 18 18" fill="none" xmlns="http://www.w3.org/2000/svg">
<path d="M10.4997 3.74998C10.6749 3.74964 10.8447 3.81067 10.9797 3.92248C11.133 4.04964 11.2295 4.23261 11.2478 4.431C11.2661 4.6294 11.2047 4.82692 11.0772 4.97998L7.71715 8.99998L10.9572 13.0275C11.083 13.1824 11.1419 13.3811 11.1207 13.5796C11.0996 13.7781 11.0003 13.96 10.8447 14.085C10.6878 14.223 10.4804 14.2893 10.2726 14.268C10.0647 14.2466 9.87519 14.1395 9.74965 13.9725L6.12715 9.47248C5.89967 9.19573 5.89967 8.79673 6.12715 8.51998L9.87715 4.01998C10.0298 3.8359 10.261 3.7356 10.4997 3.74998Z" fill="white"/>
</svg>
