<svg width="22" height="23" viewBox="0 0 22 23" fill="none" xmlns="http://www.w3.org/2000/svg">
<path d="M19.8795 7.06836L18.1125 8.83543L14.5783 5.30129L16.3454 3.53422C16.8166 3.063 17.5234 2.82739 18.1125 2.82739C18.7015 2.82739 19.4083 3.063 19.8795 3.53422C20.822 4.47666 20.822 6.12592 19.8795 7.06836Z" fill="white"/>
<path d="M17.2878 9.54213L4.56494 22.265C3.62251 23.2075 1.97324 23.2075 1.03081 22.265C0.0883693 21.3226 0.0883693 19.6733 1.03081 18.7309L13.7537 6.008L17.2878 9.54213Z" fill="white"/>
<path d="M8.68803 2.23829L9.15924 0.589023C9.15924 0.471218 9.15924 0.235609 9.04144 0.117805C8.92364 2.63314e-08 8.68803 0 8.57022 0L6.92096 0.589023L5.27169 0C5.15389 0 4.91828 2.63314e-08 4.80048 0.117805C4.68267 0.235609 4.68267 0.471218 4.80048 0.589023L5.27169 2.23829L4.68267 3.88755C4.68267 4.00536 4.68267 4.24096 4.80048 4.35877C4.91828 4.47657 5.15389 4.47657 5.27169 4.47657L6.92096 4.00536L8.57022 4.47657H8.68803C8.80583 4.47657 8.92364 4.47657 9.04144 4.35877C9.15924 4.24096 9.15924 4.12316 9.15924 3.88755L8.68803 2.23829Z" fill="#9F9ACA"/>
<path d="M3.9759 9.30659L4.44712 7.65732C4.44712 7.53952 4.44712 7.30391 4.32932 7.1861C4.21151 7.0683 3.9759 7.0683 3.8581 7.1861L2.20884 7.65732L0.559572 7.0683C0.441767 7.0683 0.206158 7.0683 0.0883534 7.1861C-0.0294511 7.30391 -0.0294511 7.53952 0.0883534 7.65732L0.559572 9.30659L0.0883534 10.9558C0.0883534 11.0737 0.0883533 11.3093 0.206158 11.4271C0.323962 11.5449 0.441767 11.5449 0.677376 11.5449L2.32664 11.0737L3.9759 11.5449H4.09371C4.21151 11.5449 4.32932 11.5449 4.44712 11.4271C4.56493 11.3093 4.56493 11.1915 4.56493 10.9558L3.9759 9.30659Z" fill="#9F9ACA"/>
<path d="M21.5288 15.1968L22 13.5475C22 13.4297 22 13.1941 21.8822 13.0763C21.7644 12.9585 21.6466 12.9585 21.411 12.9585L19.7617 13.4297L18.1124 12.9585C17.9946 12.9585 17.759 12.9585 17.6412 13.0763C17.5234 13.1941 17.5234 13.3119 17.5234 13.5475L17.9946 15.1968L17.5234 16.846C17.5234 16.9639 17.5234 17.1995 17.6412 17.3173C17.759 17.4351 17.8768 17.4351 18.1124 17.4351L19.7617 16.9639L21.411 17.4351H21.5288C21.6466 17.4351 21.7644 17.4351 21.8822 17.3173C22 17.1995 22 17.0817 22 16.846L21.5288 15.1968Z" fill="#9F9ACA"/>
</svg>
