<svg width="28" height="28" viewBox="0 0 28 28" fill="none" xmlns="http://www.w3.org/2000/svg">
<path d="M14.0002 18.0851C13.7276 18.0857 13.4634 17.9907 13.2535 17.8168L6.25352 11.9835C5.75738 11.5711 5.68948 10.8346 6.10185 10.3385C6.51422 9.84234 7.25072 9.77444 7.74685 10.1868L14.0002 15.4135L20.2535 10.3735C20.4945 10.1777 20.8037 10.0862 21.1124 10.119C21.4211 10.1519 21.7041 10.3064 21.8985 10.5485C22.1145 10.791 22.2197 11.1125 22.1887 11.4358C22.1577 11.7591 21.9933 12.0548 21.7352 12.2518L14.7352 17.8868C14.5193 18.0332 14.2605 18.1031 14.0002 18.0851Z" fill="#637381"/>
</svg>
