<svg width="18" height="18" viewBox="0 0 18 18" fill="none" xmlns="http://www.w3.org/2000/svg">
<path d="M7.50035 14.25C7.32511 14.2504 7.15528 14.1893 7.02035 14.0775C6.86697 13.9504 6.77048 13.7674 6.75219 13.569C6.7339 13.3706 6.7953 13.1731 6.92285 13.02L10.2828 9.00002L7.04285 4.97252C6.91702 4.81757 6.85814 4.61886 6.87926 4.42038C6.90037 4.2219 6.99974 4.04002 7.15535 3.91502C7.31222 3.77699 7.51957 3.71066 7.72743 3.73202C7.93529 3.75337 8.12481 3.86048 8.25035 4.02752L11.8728 8.52752C12.1003 8.80427 12.1003 9.20327 11.8728 9.48002L8.12285 13.98C7.97025 14.1641 7.73902 14.2644 7.50035 14.25Z" fill="white"/>
</svg>
